<svg data-v-8fe60e2c="" data-v-34bc416a="" width="120" height="120" viewBox="0 0 120 120" fill="none" xmlns="http://www.w3.org/2000/svg" data-test="spinner" class="spinner modal__spinner spinner_theme_gray">
<defs>
  <mask id="832e105f-52f6-4af0-888c-1f71b6320a99">
    <g>
       <path d="M76.528 10H43.472C24.986 10 10 24.986 10 43.472v33.056C10 95.014 24.986 110 43.472 110h33.056C95.014 110 110 95.014 110 76.528V43.472C110 24.986 95.014 10 76.528 10z" fill="#fff"></path>
       <animateTransform attributeName="transform" attributeType="XML" type="rotate" from="0 60 60" to="360 60 60" dur="3s" repeatCount="indefinite"></animateTransform>
    </g>
    <g>
       <path d="M73.268 18.715H46.162c-15.159 0-27.447 12.288-27.447 27.447v27.106c0 15.158 12.288 27.447 27.447 27.447h27.106c15.158 0 27.447-12.289 27.447-27.447V46.162c0-15.159-12.289-27.447-27.447-27.447z" fill="#000"></path>
       <animateTransform attributeName="transform" attributeType="XML" type="rotate" from="360 60 60" to="0 60 60" dur="3s" repeatCount="indefinite"></animateTransform>
    </g>
  </mask>
</defs>
<rect width="100%" height="100%" fill="currentColor" mask="url(#832e105f-52f6-4af0-888c-1f71b6320a99)"></rect></svg>